<?xml version="1.0" standalone="no"?>
<!DOCTYPE svg PUBLIC "-//W3C//DTD SVG 20010904//EN"
 "http://www.w3.org/TR/2001/REC-SVG-20010904/DTD/svg10.dtd">
<svg version="1.0" xmlns="http://www.w3.org/2000/svg"
 width="512.000000pt" height="512.000000pt" viewBox="0 0 512.000000 512.000000"
 preserveAspectRatio="xMidYMid meet">
<metadata>
Created by potrace 1.11, written by Peter Selinger 2001-2013
</metadata>
<g transform="translate(0.000000,512.000000) scale(0.100000,-0.100000)"
fill="#000000" stroke="none">
<path d="M2284 3940 c-938 -56 -1746 -395 -2091 -878 -58 -82 -128 -230 -149
-317 -26 -106 -24 -287 6 -393 169 -614 1073 -1098 2185 -1172 909 -60 1776
136 2337 530 127 89 302 263 372 372 109 168 149 298 149 478 0 143 -18 221
-83 355 -231 481 -905 851 -1788 985 -264 40 -660 57 -938 40z m736 -45 c806
-85 1481 -370 1816 -768 295 -348 308 -738 38 -1094 -284 -373 -920 -679
-1625 -782 -275 -41 -351 -46 -689 -46 -338 0 -412 5 -689 46 -646 94 -1236
359 -1550 695 -524 561 -265 1247 624 1652 385 175 851 282 1380 316 122 8
554 -4 695 -19z"/>
<path d="M2210 3879 c-383 -33 -740 -109 -1040 -221 -775 -290 -1173 -781
-1045 -1290 25 -98 107 -253 186 -350 292 -362 899 -645 1604 -747 237 -34
390 -45 645 -45 255 0 408 11 645 45 850 123 1527 498 1740 962 52 115 69 196
69 327 0 227 -81 410 -268 607 -367 388 -1033 644 -1851 713 -139 11 -546 11
-685 -1z m750 -64 c1180 -107 2034 -660 1997 -1293 -12 -214 -103 -389 -302
-580 -353 -340 -938 -562 -1695 -644 -149 -16 -651 -16 -800 0 -511 55 -893
158 -1251 337 -240 121 -456 289 -581 455 -105 138 -168 313 -168 464 1 220
89 406 285 601 489 488 1495 752 2515 660z"/>
<path d="M2380 3620 c-50 -12 -80 -51 -80 -104 0 -49 21 -74 98 -116 58 -31
65 -63 16 -68 -19 -2 -38 3 -47 12 -9 9 -20 16 -26 16 -15 0 -50 -50 -45 -64
16 -42 136 -61 194 -31 37 19 50 43 50 93 0 49 -20 75 -91 116 -30 18 -55 39
-57 48 -5 24 27 30 59 11 29 -18 30 -17 54 12 l24 30 -25 23 c-14 12 -33 22
-44 22 -10 0 -24 2 -32 4 -7 2 -29 0 -48 -4z"/>
<path d="M2085 3596 c-66 -8 -90 -15 -92 -26 -2 -8 5 -87 15 -175 l18 -160 94
2 c52 2 98 7 103 12 5 5 6 24 2 41 l-7 33 -53 -6 c-52 -5 -53 -5 -57 24 -6 36
-3 39 41 39 50 0 63 11 59 51 l-3 34 -55 0 c-53 0 -55 1 -58 28 -3 25 0 27 30
27 55 0 78 10 78 34 0 47 -17 53 -115 42z"/>
<path d="M2876 3598 c-3 -7 -12 -87 -21 -177 -14 -136 -14 -165 -3 -172 7 -5
50 -9 95 -9 77 0 85 2 114 28 40 36 46 98 12 134 -21 23 -21 23 -2 47 39 48
11 119 -54 140 -62 19 -137 24 -141 9z m119 -103 c0 -11 -8 -21 -17 -23 -14
-3 -18 3 -18 23 0 20 4 26 18 23 9 -2 17 -12 17 -23z m-7 -117 c18 -18 14 -46
-8 -58 -25 -13 -40 -5 -40 20 0 45 23 63 48 38z"/>
<path d="M3615 3585 c-28 -27 -30 -37 -15 -66 7 -12 7 -19 1 -19 -11 0 -221
-296 -221 -311 0 -4 19 -14 41 -21 41 -12 42 -11 69 21 l27 34 51 -13 c50 -13
51 -15 54 -53 3 -38 5 -41 48 -53 24 -7 46 -11 48 -9 7 6 -29 370 -38 378 -4
5 3 19 16 32 30 31 30 50 -1 80 -13 14 -31 25 -40 25 -9 0 -27 -11 -40 -25z
m4 -287 c1 -19 -24 -24 -47 -9 -10 6 -8 16 10 47 l23 39 6 -30 c4 -17 7 -38 8
-47z"/>
<path d="M3196 3549 c-3 -13 -17 -91 -32 -173 -19 -112 -23 -151 -14 -156 15
-9 160 -33 166 -28 2 2 5 19 6 38 3 32 1 34 -38 42 l-41 9 23 136 c13 75 22
139 20 141 -3 2 -22 6 -45 9 -36 5 -41 3 -45 -18z"/>
<path d="M1763 3546 c-35 -7 -66 -15 -69 -19 -4 -4 6 -82 22 -174 l29 -168 33
-3 c54 -5 61 7 47 84 -10 49 -10 66 -1 69 6 1 29 7 51 11 37 8 40 11 37 39 -5
41 -11 45 -62 35 -47 -9 -60 -2 -60 32 0 12 11 19 38 23 61 11 64 13 60 47 -3
29 -7 33 -33 35 -16 1 -58 -4 -92 -11z"/>
<path d="M1470 3479 c-36 -10 -70 -21 -76 -23 -8 -3 1 -56 30 -173 l43 -168
38 2 c21 2 42 6 47 11 4 4 1 29 -7 56 -23 75 -21 82 29 95 25 6 47 14 49 18 2
5 0 23 -5 41 -7 24 -13 32 -24 28 -9 -3 -33 -9 -53 -12 -34 -5 -39 -3 -44 17
-8 31 -3 36 43 44 47 8 54 16 45 55 -8 36 -21 37 -115 9z"/>
<path d="M1223 3408 c-18 -6 -33 -14 -33 -19 0 -4 18 -59 40 -121 22 -62 40
-118 40 -125 0 -20 -30 -43 -56 -43 -29 0 -43 27 -90 167 l-29 85 -34 -6 c-55
-9 -58 -18 -32 -98 59 -184 94 -228 181 -228 84 0 150 58 150 131 0 42 -80
269 -94 268 -6 -1 -26 -6 -43 -11z"/>
<path d="M3893 3362 c-28 -22 -46 -69 -38 -102 3 -14 19 -41 34 -60 46 -58 55
-80 39 -95 -18 -18 -55 -2 -70 30 -6 14 -15 25 -20 25 -12 0 -68 -29 -68 -36
0 -19 35 -66 63 -83 81 -50 176 -29 195 41 12 44 0 81 -43 136 -19 25 -35 54
-35 64 0 27 35 22 60 -9 20 -26 21 -26 55 -10 37 18 38 33 6 71 -40 46 -135
62 -178 28z"/>
<path d="M3570 3000 c0 -24 -64 -96 -118 -133 -72 -50 -236 -87 -475 -107
-201 -16 -264 -14 -277 9 -16 31 -12 59 10 71 32 17 14 30 -41 30 -37 0 -49
-4 -49 -15 0 -8 7 -15 15 -15 19 0 21 -60 3 -78 -15 -15 -61 -15 -76 0 -18 18
-16 78 3 78 8 0 15 7 15 15 0 11 -12 15 -49 15 -52 0 -79 -17 -42 -27 30 -8
29 -66 -1 -87 -30 -21 -43 -20 -68 6 -26 28 -26 64 0 78 32 17 14 30 -41 30
-37 0 -49 -4 -49 -15 0 -8 7 -15 15 -15 27 0 19 -63 -12 -90 -33 -28 -84 -32
-470 -34 -204 0 -275 2 -285 12 -6 6 -20 12 -30 12 -9 0 -22 8 -27 18 -13 21
-12 25 -14 -71 -2 -76 5 -104 17 -72 3 8 14 15 25 15 11 0 22 4 25 9 3 4 80 9
172 10 l166 1 -46 -52 c-57 -65 -86 -140 -93 -238 -6 -88 7 -163 43 -234 35
-71 69 -103 133 -127 72 -27 141 -22 212 15 52 26 52 27 73 7 12 -11 37 -23
56 -28 35 -10 40 -21 29 -63 -2 -8 6 -19 19 -25 15 -7 22 -18 22 -38 0 -16 7
-30 15 -34 20 -7 25 -1 29 33 2 17 11 32 25 38 18 8 21 15 16 38 -5 22 -3 28
10 28 13 0 15 -6 10 -28 -5 -24 -2 -30 20 -40 19 -9 25 -19 25 -43 0 -43 34
-37 38 7 2 22 11 35 28 43 21 9 23 14 14 30 -14 27 -13 31 11 31 18 0 20 -4
14 -29 -5 -24 -2 -30 14 -36 13 -4 21 -16 23 -38 4 -47 35 -49 43 -3 5 23 14
38 27 42 15 4 18 12 13 33 -6 27 -5 27 77 40 46 7 110 16 144 20 66 7 82 15
130 69 l31 35 146 1 c130 1 148 3 173 22 37 27 50 67 33 106 -20 48 -63 61
-219 62 l-135 1 -7 70 c-7 64 -26 148 -42 185 -11 26 242 10 318 -20 68 -26
142 -93 176 -160 12 -23 25 -39 30 -34 9 10 33 371 25 383 -2 4 -4 52 -5 107
-2 137 -9 194 -26 194 -8 0 -14 -9 -14 -20z m2 -257 l3 -123 -35 5 -35 5 33
-15 c21 -10 32 -22 32 -36 0 -11 -3 -19 -7 -17 -99 51 -159 64 -337 73 -109 5
-124 0 -63 -21 28 -10 23 -11 -43 -9 -73 2 -94 14 -48 27 19 5 17 6 -11 7 -18
1 -65 17 -105 36 -50 25 -91 37 -138 42 -38 3 -68 10 -68 16 0 6 17 7 43 4 63
-9 328 11 437 33 52 10 127 30 165 45 39 15 75 27 82 27 7 1 10 5 7 10 -3 4
-1 8 3 8 5 0 24 15 43 34 l35 34 2 -31 c2 -18 4 -87 5 -154z m-1172 2 c16 -19
10 -26 -17 -19 -13 4 -20 11 -16 20 7 18 17 18 33 -1z m144 0 c4 -10 -1 -15
-14 -15 -13 0 -18 5 -14 15 4 8 10 15 14 15 4 0 10 -7 14 -15z m145 1 c9 -11
8 -15 -5 -20 -21 -8 -34 1 -27 19 7 19 17 19 32 1z m-1129 -61 c0 -17 -5 -25
-17 -24 -11 0 -13 3 -5 6 6 2 12 13 12 24 0 10 2 19 5 19 3 0 5 -11 5 -25z
m920 5 c0 -19 -7 -20 -230 -20 -196 0 -230 2 -230 15 0 12 26 15 148 18 81 1
184 4 230 5 76 2 82 1 82 -18z m-480 -2 c0 -5 -81 -8 -180 -8 -99 0 -180 4
-180 8 0 5 81 8 180 8 99 -1 180 -4 180 -8z m-393 -4 c-3 -3 -12 -4 -19 -1 -8
3 -5 6 6 6 11 1 17 -2 13 -5z m913 -4 c-20 -13 -33 -13 -25 0 3 6 14 10 23 10
15 0 15 -2 2 -10z m277 -2 c-35 -8 -52 -7 -60 1 -8 8 5 11 49 10 l59 -1 -48
-10z m-479 -45 c-3 -16 -21 -19 -163 -23 -173 -5 -194 -11 -247 -67 -52 -55
-72 -118 -73 -228 0 -89 3 -104 25 -140 14 -22 32 -53 40 -69 33 -64 138 -85
231 -45 27 12 49 25 49 30 0 5 5 9 10 9 6 0 10 -8 10 -18 0 -13 -18 -27 -57
-45 -84 -38 -97 -40 -158 -22 -102 29 -163 112 -187 252 -21 124 12 236 96
330 l43 48 192 3 c179 2 192 1 189 -15z m104 -88 c3 -109 0 -115 -58 -101 -23
6 -24 9 -24 101 l0 94 38 3 c20 2 38 3 39 3 1 0 3 -45 5 -100z m43 75 c-6 -9
-9 -9 -16 1 -10 17 0 34 13 21 6 -6 7 -16 3 -22z m100 -76 l0 -99 -35 3 c-19
2 -39 7 -43 11 -5 5 -5 47 -1 94 6 83 8 86 33 90 45 7 46 4 46 -99z m48 100
c8 -8 -3 -34 -14 -34 -5 0 -9 9 -9 20 0 19 11 26 23 14z m98 -6 c0 -7 2 -49 4
-93 6 -98 0 -110 -49 -101 l-36 7 1 92 c0 58 5 95 12 99 19 12 67 9 68 -4z
m174 -13 c27 -11 22 -12 -57 -14 -85 -1 -118 10 -87 30 17 11 102 1 144 -16z
m133 -18 c6 -5 12 -21 12 -36 -1 -24 -1 -25 -12 -6 -6 11 -20 30 -32 43 -20
22 -20 23 -1 16 11 -4 26 -11 33 -17z m249 7 c-3 -3 -12 -4 -19 -1 -8 3 -5 6
6 6 11 1 17 -2 13 -5z m93 -4 c21 -7 19 -8 -12 -6 -21 1 -41 6 -45 9 -9 9 26
7 57 -3z m126 -28 c57 -24 88 -46 83 -60 -3 -9 -18 -3 -44 17 -22 16 -60 36
-85 44 -32 12 -38 16 -20 16 14 0 43 -8 66 -17z m-1215 2 l44 -6 0 -94 c0 -80
-2 -94 -16 -94 -23 0 -67 -37 -84 -71 -15 -29 -16 -29 -106 -29 -82 0 -91 2
-96 20 -7 25 -33 26 -33 1 0 -13 -10 -21 -34 -25 -21 -4 -45 -19 -60 -37 l-26
-31 -1 39 c-5 137 20 222 81 277 24 21 54 37 77 41 21 4 43 8 48 10 17 6 161
5 206 -1z m194 -94 c0 -49 -3 -90 -7 -90 -5 0 -8 33 -8 74 0 41 -3 81 -6 90
-4 10 -1 16 7 16 11 0 14 -21 14 -90z m145 69 c0 -11 -4 -17 -10 -14 -5 3 -10
13 -10 21 0 8 5 14 10 14 6 0 10 -9 10 -21z m384 -41 c16 -32 31 -78 33 -103
l6 -44 -34 9 c-29 9 -85 11 -235 10 l-30 0 6 52 c4 29 5 72 2 96 l-5 43 114
-3 114 -3 29 -57z m549 -16 c15 -14 27 -30 27 -36 0 -6 -11 1 -24 15 -13 15
-40 36 -60 48 -20 13 -36 25 -36 27 0 9 66 -29 93 -54z m-464 -116 c13 -88 3
-152 -35 -235 -31 -68 -95 -121 -146 -121 -32 0 -32 1 17 24 28 13 63 37 78
55 55 66 82 237 53 347 -21 81 -19 99 4 47 10 -23 24 -76 29 -117z m-469 44
c0 -22 -4 -40 -9 -40 -8 0 -9 39 -2 73 4 22 11 2 11 -33z m-207 -7 c-7 -2 -21
-2 -30 0 -10 3 -4 5 12 5 17 0 24 -2 18 -5z m14 -36 c9 -10 66 -8 82 2 9 6 24
6 38 0 13 -5 101 -11 196 -14 241 -7 297 -15 297 -40 0 -12 -6 -12 -27 -4 -15
6 -44 8 -63 5 -22 -4 -28 -3 -16 2 18 8 18 9 2 15 -27 11 -114 8 -121 -3 -4
-6 -91 -10 -229 -10 -180 0 -226 3 -242 15 -17 13 -17 14 -1 15 9 0 17 6 17
13 0 12 55 16 67 4z m-173 -119 c-2 -29 -6 -62 -9 -74 -2 -12 2 -45 9 -75 16
-61 13 -71 -12 -45 -14 14 -17 34 -16 104 2 75 14 142 28 142 2 0 2 -24 0 -52z
m166 -3 c0 -30 -4 -55 -10 -55 -5 0 -7 6 -5 13 3 7 -3 29 -14 49 -12 25 -15
39 -7 42 30 12 36 5 36 -49z m60 10 c0 -33 -4 -45 -15 -45 -11 0 -15 12 -15
45 0 33 4 45 15 45 11 0 15 -12 15 -45z m85 35 c3 -5 -5 -15 -19 -22 -27 -11
-36 -51 -16 -63 6 -3 10 -22 10 -41 0 -19 -4 -34 -10 -34 -22 0 -10 -40 14
-46 31 -8 24 -47 -8 -42 -20 3 -21 9 -23 131 l-2 127 24 0 c13 0 27 -4 30 -10z
m65 -67 c0 -72 -7 -80 -15 -18 -2 21 -9 43 -15 49 -17 17 -11 36 10 36 18 0
20 -7 20 -67z m75 57 c-3 -5 -17 -10 -31 -10 -13 0 -24 5 -24 10 0 6 14 10 31
10 17 0 28 -4 24 -10z m165 0 c0 -6 -28 -10 -65 -10 -37 0 -65 4 -65 10 0 6
28 10 65 10 37 0 65 -4 65 -10z m150 0 c11 -7 5 -10 -23 -10 -23 0 -36 4 -32
10 8 13 35 13 55 0z m-823 -43 c-5 -16 -159 -10 -169 7 -5 7 -8 5 -8 -6 0 -10
-7 -18 -15 -18 -20 0 -19 28 1 32 9 2 57 2 106 0 63 -3 88 -7 85 -15z m382 0
c18 -34 11 -111 -12 -115 -15 -3 -16 0 -7 24 8 19 8 37 0 57 -19 56 -6 80 19
34z m169 1 c3 -14 -4 -18 -31 -18 -43 0 -67 8 -67 24 0 7 19 11 47 11 37 0 48
-4 51 -17z m175 15 c-7 -2 -19 -2 -25 0 -7 3 -2 5 12 5 14 0 19 -2 13 -5z
m505 -19 c12 -8 22 -22 22 -32 0 -11 -3 -13 -8 -5 -13 20 -65 34 -103 28 -36
-6 -57 5 -45 24 8 12 107 1 134 -15z m-1453 6 c3 -6 -5 -14 -19 -20 -20 -7
-26 -17 -26 -39 0 -31 14 -41 61 -41 19 0 29 -5 29 -15 0 -22 -56 -19 -91 6
-35 24 -37 56 -8 93 21 27 43 33 54 16z m403 -11 c11 -27 3 -81 -10 -73 -6 4
-8 21 -5 39 l5 32 -44 -5 c-25 -2 -44 0 -44 5 0 17 13 23 52 23 30 0 40 -5 46
-21z m512 8 c36 1 82 4 104 8 30 6 38 5 34 -6 -4 -11 -35 -15 -131 -17 -112
-2 -127 -1 -127 14 0 13 6 15 28 9 15 -5 56 -8 92 -8z m390 3 c0 -6 -35 -10
-85 -10 -50 0 -85 4 -85 10 0 6 35 10 85 10 50 0 85 -4 85 -10z m-1080 -52
c-1 -37 -15 -41 -126 -35 -103 6 -144 18 -117 35 7 5 64 9 128 11 90 2 115 -1
115 -11z m138 -15 c3 -20 -1 -23 -27 -23 -27 0 -31 4 -31 26 0 22 4 25 28 22
19 -2 28 -9 30 -25z m370 3 c9 -20 7 -124 -4 -135 -1 -2 -14 -1 -27 3 -22 5
-24 10 -24 81 0 70 2 75 22 75 13 0 26 -9 33 -24z m312 5 c0 -30 -18 -36 -100
-32 -61 2 -79 7 -103 27 l-29 24 116 0 c108 0 116 -1 116 -19z m96 -46 c-4
-22 -23 -48 -56 -79 -58 -54 -87 -63 -34 -10 20 20 43 53 51 73 9 20 20 47 26
61 9 22 11 22 14 7 3 -11 2 -34 -1 -52z m291 50 c3 -9 4 -18 2 -20 -9 -8 -260
-12 -265 -3 -3 5 -3 15 0 23 8 23 254 22 263 0z m-917 -10 c0 -10 -10 -15 -30
-15 -29 0 -38 9 -23 23 13 13 53 7 53 -8z m255 5 c3 -5 1 -10 -4 -10 -6 0 -11
5 -11 10 0 6 2 10 4 10 3 0 8 -4 11 -10z m715 -10 c0 -5 -5 -10 -11 -10 -5 0
-7 5 -4 10 3 6 8 10 11 10 2 0 4 -4 4 -10z m-1036 -8 c2 -4 1 -32 -2 -62 -5
-41 -11 -56 -24 -58 -16 -3 -17 -1 -2 34 9 21 13 50 10 66 -5 26 6 39 18 20z
m419 -38 c42 -38 64 -74 45 -74 -14 0 -108 97 -108 112 0 12 19 0 63 -38z
m-645 -3 c2 -7 -26 -11 -82 -11 -47 0 -86 4 -86 9 0 13 25 17 100 14 35 -1 66
-7 68 -12z m196 13 c-7 -3 -10 -13 -7 -23 3 -10 0 -22 -6 -25 -6 -4 -11 0 -11
9 0 11 -6 14 -25 9 -29 -7 -75 2 -75 16 0 5 26 11 58 13 31 2 62 4 67 4 6 1 5
-1 -1 -3z m242 -23 c-4 -6 -14 -11 -22 -11 -12 0 -13 4 -3 21 7 14 14 18 21
11 6 -6 7 -15 4 -21z m604 17 c25 -1 52 2 59 6 17 11 25 1 17 -20 -5 -14 -15
-16 -59 -10 -28 3 -69 6 -89 6 -30 0 -36 3 -31 16 4 10 14 13 32 10 14 -3 46
-6 71 -8z m180 3 c0 -12 -26 -21 -61 -21 -39 0 -37 18 4 23 17 2 38 5 45 5 6
1 12 -2 12 -7z m-940 -46 c0 -33 -4 -45 -15 -45 -11 0 -15 12 -15 45 0 33 4
45 15 45 11 0 15 -12 15 -45z m284 39 c23 -9 20 -24 -4 -24 -11 0 -20 7 -20
15 0 17 2 18 24 9z m226 -3 c0 -24 -77 -28 -106 -6 -17 13 -14 14 44 15 34 0
62 -4 62 -9z m-1020 -41 c8 -5 11 -12 7 -16 -4 -4 -15 0 -24 9 -18 18 -8 23
17 7z m155 -21 c-22 -10 -56 -19 -77 -19 -31 0 -35 3 -31 20 5 18 13 20 77 19
l71 -1 -40 -19z m503 -2 c2 -12 -3 -17 -17 -17 -15 0 -21 6 -21 21 0 25 33 22
38 -4z m197 3 c18 -20 17 -20 -18 -20 -19 0 -42 -3 -51 -6 -12 -5 -16 0 -16
20 0 23 4 26 33 26 21 0 41 -8 52 -20z m115 16 c0 -11 -19 -15 -25 -6 -3 5 1
10 9 10 9 0 16 -2 16 -4z m-600 -16 c0 -5 -7 -10 -15 -10 -8 0 -15 5 -15 10 0
6 7 10 15 10 8 0 15 -4 15 -10z m408 -46 c32 -4 52 -11 52 -19 0 -7 -6 -15
-12 -17 -7 -3 -107 -2 -223 1 -186 5 -210 8 -213 23 -3 15 13 17 170 17 95 1
197 -2 226 -5z m-408 -8 c0 -11 -19 -15 -25 -6 -3 5 1 10 9 10 9 0 16 -2 16
-4z m523 -3 c-7 -2 -19 -2 -25 0 -7 3 -2 5 12 5 14 0 19 -2 13 -5z m-440 -73
c5 -18 0 -20 -36 -19 -41 1 -41 1 -14 12 15 6 27 14 27 19 0 17 18 7 23 -12z
m144 0 c1 -16 -4 -20 -33 -20 -21 0 -33 4 -29 10 3 6 15 10 26 10 11 0 17 5
14 10 -3 6 0 10 7 10 8 0 14 -9 15 -20z m143 16 c0 -2 3 -11 6 -20 5 -13 -2
-16 -36 -16 -25 0 -39 4 -35 10 3 6 15 10 26 10 11 0 17 5 14 10 -3 6 1 10 9
10 9 0 16 -2 16 -4z"/>
<path d="M3177 2673 c18 -2 50 -2 70 0 21 2 7 4 -32 4 -38 0 -55 -2 -38 -4z"/>
<path d="M3450 2642 c0 -10 41 -24 49 -17 6 7 0 11 -26 19 -13 4 -23 3 -23 -2z"/>
<path d="M1755 1709 c-10 -27 -33 -163 -29 -170 7 -12 62 -21 84 -14 25 8 44
50 31 72 -5 9 -4 27 3 44 9 25 7 32 -9 48 -27 26 -73 37 -80 20z m55 -47 c0
-13 -12 -22 -22 -16 -10 6 -1 24 13 24 5 0 9 -4 9 -8z m-10 -82 c0 -11 -7 -20
-15 -20 -8 0 -15 9 -15 20 0 11 7 20 15 20 8 0 15 -9 15 -20z"/>
<path d="M3324 1709 c-8 -14 15 -155 30 -173 9 -13 16 -13 51 -1 77 27 99 95
49 154 -22 27 -32 31 -74 31 -27 0 -52 -5 -56 -11z m110 -68 c9 -30 7 -36 -14
-53 -29 -24 -38 -15 -46 46 l-7 48 29 -4 c23 -2 30 -10 38 -37z"/>
<path d="M3222 1691 c-10 -6 -12 -21 -6 -56 8 -54 9 -55 -69 7 -56 44 -69 47
-63 16 3 -13 10 -56 16 -95 10 -63 15 -73 32 -73 18 0 19 4 13 50 -4 28 -5 50
-2 50 2 0 31 -20 62 -45 32 -24 61 -42 65 -40 8 5 -17 176 -28 187 -4 4 -13 3
-20 -1z"/>
<path d="M1931 1667 c-5 -14 -13 -57 -17 -96 -6 -68 -6 -71 15 -71 16 0 21 6
22 28 l0 27 16 -32 c15 -29 45 -48 57 -36 3 3 -1 18 -9 34 -17 32 -19 59 -5
59 15 0 32 39 25 60 -7 22 -25 34 -68 44 -23 5 -29 2 -36 -17z m64 -37 c3 -6
-1 -13 -10 -16 -19 -8 -30 0 -20 15 8 14 22 14 30 1z"/>
<path d="M2124 1573 c-44 -75 -49 -89 -36 -97 11 -6 20 -3 33 13 25 31 77 29
85 -4 6 -26 44 -37 44 -12 0 21 -59 182 -67 184 -5 2 -31 -36 -59 -84z"/>
<path d="M2906 1573 c-16 -49 -31 -94 -33 -100 -3 -8 3 -13 16 -13 13 0 23 8
27 24 9 37 59 43 87 11 15 -17 26 -22 36 -16 11 7 3 26 -35 92 -27 45 -54 84
-59 86 -6 2 -24 -36 -39 -84z"/>
<path d="M2352 1639 c-12 -5 -24 -20 -28 -36 -6 -23 -2 -32 29 -59 21 -17 37
-36 37 -43 0 -13 -32 -15 -46 -1 -5 5 -15 5 -23 1 -10 -7 -11 -13 -2 -30 16
-29 85 -30 101 -2 18 34 11 59 -27 96 l-38 37 32 -6 c35 -6 51 7 34 28 -16 19
-43 25 -69 15z"/>
<path d="M2526 1624 c-27 -26 -19 -60 19 -90 50 -38 46 -73 -5 -41 -29 17 -46
-10 -23 -35 21 -23 65 -23 86 0 28 31 21 68 -18 98 -43 33 -45 48 -5 39 22 -5
30 -3 30 7 0 36 -56 51 -84 22z"/>
<path d="M2697 1632 c-3 -4 -3 -46 0 -95 l6 -87 34 0 c53 0 73 15 73 55 0 18
-5 37 -10 40 -6 3 -7 17 -4 31 9 34 -20 64 -62 64 -18 0 -35 -3 -37 -8z m58
-41 c3 -5 1 -12 -5 -16 -5 -3 -10 1 -10 9 0 18 6 21 15 7z m13 -84 c2 -10 -3
-17 -12 -17 -10 0 -16 9 -16 21 0 24 23 21 28 -4z"/>
</g>
</svg>
