<?xml version="1.0" standalone="no"?>
<!DOCTYPE svg PUBLIC "-//W3C//DTD SVG 20010904//EN"
 "http://www.w3.org/TR/2001/REC-SVG-20010904/DTD/svg10.dtd">
<svg version="1.0" xmlns="http://www.w3.org/2000/svg"
 width="64.000000pt" height="64.000000pt" viewBox="0 0 64.000000 64.000000"
 preserveAspectRatio="xMidYMid meet">
<metadata>
Created by potrace 1.11, written by Peter Selinger 2001-2013
</metadata>
<g transform="translate(0.000000,64.000000) scale(0.100000,-0.100000)"
fill="#000000" stroke="none">
<path d="M170 475 c-69 -23 -122 -57 -147 -94 -48 -71 -17 -136 92 -191 69
-35 70 -35 205 -35 135 0 136 0 205 35 153 77 154 183 1 260 -66 33 -74 34
-190 37 -87 2 -134 -1 -166 -12z m135 -24 c-3 -5 -1 -12 5 -16 6 -4 8 -11 5
-16 -11 -17 -22 -9 -19 14 3 27 3 27 10 27 3 0 3 -4 -1 -9z m-78 -21 c1 -11
-2 -18 -8 -15 -11 7 -12 35 -1 35 4 0 8 -9 9 -20z m39 -5 c1 -8 -2 -15 -7 -15
-5 0 -9 10 -9 22 0 23 12 17 16 -7z m120 8 c-4 -25 -26 -28 -26 -4 0 12 6 21
14 21 8 0 13 -8 12 -17z m21 -15 c-3 -7 -5 -2 -5 12 0 14 2 19 5 13 2 -7 2
-19 0 -25z m59 8 c1 -18 -3 -24 -17 -23 -22 2 -23 2 -7 27 17 26 23 25 24 -4z
m-276 -8 c0 -19 -2 -20 -10 -8 -13 19 -13 30 0 30 6 0 10 -10 10 -22z m-30
-31 c-9 -9 -15 -7 -26 7 -18 26 -8 35 12 10 14 -18 15 -18 9 6 -5 22 -5 23 6
7 8 -14 8 -22 -1 -30z m346 18 c1 -8 -2 -17 -7 -21 -5 -3 -9 7 -9 22 0 27 12
26 16 -1z m-56 -72 c0 -29 -3 -34 -12 -25 -7 7 -20 12 -31 12 -13 0 -18 -6
-15 -22 2 -17 9 -22 26 -21 13 2 21 -1 17 -7 -3 -6 -15 -10 -25 -10 -10 0 -31
-5 -47 -12 -35 -14 -73 -18 -73 -6 0 4 -13 8 -30 8 -23 0 -31 5 -36 24 -8 32
12 66 39 67 12 0 52 2 90 3 37 1 72 7 79 14 17 17 18 16 18 -25z"/>
<path d="M237 313 c-12 -12 -7 -33 8 -40 15 -5 44 21 45 40 0 9 -44 9 -53 0z"/>
<path d="M340 310 c0 -5 9 -10 20 -10 11 0 20 5 20 10 0 6 -9 10 -20 10 -11 0
-20 -4 -20 -10z"/>
<path d="M358 273 c7 -3 16 -2 19 1 4 3 -2 6 -13 5 -11 0 -14 -3 -6 -6z"/>
</g>
</svg>
