<?xml version="1.0" encoding="UTF-8" standalone="no"?>
<svg
   xmlns:dc="http://purl.org/dc/elements/1.1/"
   xmlns:cc="http://creativecommons.org/ns#"
   xmlns:rdf="http://www.w3.org/1999/02/22-rdf-syntax-ns#"
   xmlns:svg="http://www.w3.org/2000/svg"
   xmlns="http://www.w3.org/2000/svg"
   viewBox="0 0 935.23999 189.77333"
   height="189.77333"
   width="935.23999"
   xml:space="preserve"
   id="svg2"
   version="1.1"><metadata
     id="metadata8"><rdf:RDF><cc:Work
         rdf:about=""><dc:format>image/svg+xml</dc:format><dc:type
           rdf:resource="http://purl.org/dc/dcmitype/StillImage" /><dc:title></dc:title></cc:Work></rdf:RDF></metadata><defs
     id="defs6" /><g
     transform="matrix(1.3333333,0,0,-1.3333333,0,189.77333)"
     id="g10"><g
       transform="scale(0.1)"
       id="g12"><path
         id="path14"
         style="fill:#1268b0;fill-opacity:1;fill-rule:nonzero;stroke:none"
         d="m 348.93,898.629 c 0,245.901 161.308,454.111 383.867,524.651 H 0 L 355.398,814.008 c -4.246,27.586 -6.468,55.84 -6.468,84.621" /><path
         id="path16"
         style="fill:#00984f;fill-opacity:1;fill-rule:nonzero;stroke:none"
         d="m 830.238,390.961 c -105.769,0 -203.437,34.605 -282.355,93.094 L 830.238,0 1112.6,484.055 C 1033.68,425.566 936.012,390.961 830.238,390.961" /><path
         id="path18"
         style="fill:#00984f;fill-opacity:1;fill-rule:nonzero;stroke:none"
         d="m 1660.49,1423.28 c 0,0 -640.07,0 -653.31,0 -371.989,0 -460.75,-289.06 -460.75,-424.807 0,-60.832 12.816,-118.653 35.859,-170.961 3.531,-7.114 7.051,-14.094 10.488,-20.891 C 637.117,726 721.391,670.508 818.949,666.66 c 0,0.02 -0.008,0.02 -0.008,0.02 -0.019,0.019 -0.031,0.039 -0.05,0.058 3.761,-0.215 7.539,-0.332 11.359,-0.332 3.461,0 6.891,0.117 10.313,0.254 105.957,5.371 190.217,92.981 190.217,200.27 0,110.636 -89.608,200.34 -200.198,200.52 3.637,3.36 7.387,6.61 11.211,9.77 49.484,41.97 113.504,67.34 183.477,67.34 156.78,0 283.88,-127.1 283.88,-283.88 0,-15.746 -1.34,-31.168 -3.8,-46.211 l 355.14,608.811" /><path
         id="path20"
         style="fill:#231f20;fill-opacity:1;fill-rule:nonzero;stroke:none"
         d="m 1824.07,929.172 c 0,0 -71.15,175.108 -72.01,178.948 -2.98,10.22 -2.12,19.17 8.95,23.43 h -94.16 c 12.78,-5.11 17.89,-11.93 23.01,-20.45 8.09,-15.77 119.29,-278.217 119.29,-278.217 0,0 102.69,261.597 109.93,278.217 4.26,10.22 5.11,13.21 16.19,20.45 h -51.98 c 11.08,-4.26 12.78,-10.23 8.95,-21.31 -0.42,-2.97 -68.17,-181.068 -68.17,-181.068" /><path
         id="path22"
         style="fill:#231f20;fill-opacity:1;fill-rule:nonzero;stroke:none"
         d="m 2362,1019.07 c -40.05,18.32 -58.37,28.12 -58.37,54.11 0,18.32 12.77,40.91 45.16,40.91 40.9,0 65.19,-34.09 71.15,-56.67 l -2.13,63.06 c -21.73,12.77 -49.85,15.76 -64.34,15.76 -38.76,0 -92.88,-23.01 -92.88,-80.95 0,-32.38 17.05,-55.388 56.24,-77.122 38.77,-20.879 75.84,-26.418 75.84,-67.316 0,-20.879 -12.78,-51.129 -54.96,-51.129 -44.31,0 -69.87,40.047 -77.97,70.297 l 2.13,-72 c 14.92,-7.25 43.03,-20.454 81.8,-20.454 52.41,0 99.28,36.211 99.28,89.477 0,59.219 -41.33,73.277 -80.95,92.027" /><path
         id="path24"
         style="fill:#231f20;fill-opacity:1;fill-rule:nonzero;stroke:none"
         d="m 2690.44,1107.27 c 10.22,-0.85 16.19,-9.8 20.03,-17.05 v 41.33 h -233.49 v -41.33 c 3.84,7.25 11.08,17.05 21.31,17.05 0,0 36.64,2.98 68.17,2.98 V 861 c 0,-9.367 -4.26,-15.332 -11.08,-19.168 h 76.27 c -6.39,3.836 -11.08,9.801 -11.08,19.168 v 249.25 c 31.1,0 69.87,-2.98 69.87,-2.98" /><path
         id="path26"
         style="fill:#231f20;fill-opacity:1;fill-rule:evenodd;stroke:none"
         d="m 2966.24,1059.97 c 0,28.54 -20.02,71.58 -108.22,71.58 h -92.03 c 6.82,-3.41 11.08,-9.37 11.08,-19.17 V 861 c 0,-9.367 -4.26,-15.34 -11.08,-19.168 h 77.12 c -7.25,3.828 -11.93,9.801 -11.93,19.168 v 116.309 c 0,0 13.63,0.859 18.74,0.859 18.33,0 28.12,-18.328 39.2,-35.371 15.34,-23.856 34.09,-54.953 53.26,-81.797 7.67,-10.23 21.73,-20.02 37.92,-20.02 l 55.39,0.852 c 0,0 -19.18,6.805 -27.27,17.039 -14.91,17.035 -66.04,97.988 -66.04,97.988 -6.39,9.371 -19.17,28.973 -48.15,31.957 30.26,2.137 72.01,25.134 72.01,71.154 z m -110.35,51.13 c 42.18,0 54.11,-34.08 54.11,-53.68 0,-43.04 -30.68,-59.232 -59.65,-59.232 -7.24,0 -19.17,0.851 -19.17,0.851 v 111.201 c 0,0 11.93,0.86 24.71,0.86" /><path
         id="path28"
         style="fill:#231f20;fill-opacity:1;fill-rule:evenodd;stroke:none"
         d="m 3191.86,1140.5 c 0,0 -112.06,-261.609 -120.15,-277.789 -4.26,-8.102 -8.1,-12.789 -20.02,-20.879 h 58.79 c -11.51,5.106 -13.63,11.078 -9.8,21.297 0.85,4.691 11.08,29.832 23.86,58.789 h 104.39 c 11.92,-28.957 23,-54.961 24.28,-59.207 2.99,-8.949 0.85,-14.922 -10.22,-20.879 h 91.17 c -14.06,7.238 -17.04,11.93 -21.3,20.879 -7.67,16.18 -121,277.789 -121,277.789 z m -58.8,-196.418 c 13.63,31.957 42.61,104.388 42.61,104.388 0,0 23.43,-57.087 43.46,-104.388 h -86.07" /><path
         id="path30"
         style="fill:#231f20;fill-opacity:1;fill-rule:nonzero;stroke:none"
         d="m 2124.99,1159.47 c 11.9,0 21.99,9.38 21.99,21.99 0,11.9 -10.09,21.27 -21.99,21.27 -11.89,0 -21.27,-9.37 -21.27,-21.27 0,-12.61 9.38,-21.99 21.27,-21.99" /><path
         id="path32"
         style="fill:#231f20;fill-opacity:1;fill-rule:evenodd;stroke:none"
         d="m 2222.13,841.832 c -14.06,7.238 -17.04,11.93 -21.3,20.879 -7.67,16.18 -121,277.789 -121,277.789 0,0 -112.06,-261.609 -120.15,-277.789 -4.26,-8.102 -8.1,-12.777 -20.03,-20.879 h 58.8 c -11.51,5.106 -13.64,11.078 -9.8,21.297 0.85,4.691 11.08,29.832 23.86,58.801 h 104.39 c 11.92,-28.969 23,-54.961 24.28,-59.219 2.98,-8.949 0.85,-14.914 -10.23,-20.879 z m -201.1,102.262 c 13.63,31.945 42.6,104.376 42.6,104.376 0,0 23.44,-57.087 43.47,-104.376 h -86.07" /><path
         id="path34"
         style="fill:#231f20;fill-opacity:1;fill-rule:nonzero;stroke:none"
         d="m 2030.35,1159.47 c 11.9,0 21.99,9.38 21.99,21.99 0,11.9 -10.09,21.27 -21.99,21.27 -11.89,0 -21.27,-9.37 -21.27,-21.27 0,-12.61 9.38,-21.99 21.27,-21.99" /><path
         id="path36"
         style="fill:#231f20;fill-opacity:1;fill-rule:nonzero;stroke:none"
         d="m 1857.11,696.836 c -110.08,0 -166.42,-76.531 -166.42,-151.797 0,-91.601 75.69,-149.648 161.26,-149.648 34.4,0 95.47,11.179 131.59,31.386 -2.15,1.289 -6.88,9.036 -6.88,17.649 v 63.621 c 0,9.902 4.73,15.93 11.18,19.797 h -76.97 c 6.88,-3.867 11.18,-9.895 11.18,-19.797 V 433.23 c -20.21,-13.32 -45.59,-14.179 -54.62,-14.179 -89.01,0 -118.25,72.668 -118.25,131.586 0,69.238 42.14,122.988 115.25,122.988 20.21,0 74.82,-9.035 96.75,-67.523 l -3.02,68.378 c -33.97,14.629 -65.79,22.356 -101.05,22.356" /><path
         id="path38"
         style="fill:#231f20;fill-opacity:1;fill-rule:nonzero;stroke:none"
         d="m 2626.62,667.598 c 10.32,-0.86 16.34,-9.903 20.21,-17.207 v 41.718 h -235.65 v -41.718 c 3.87,7.304 11.18,17.207 21.5,17.207 0,0 36.98,3.007 68.8,3.007 V 419.051 c 0,-9.481 -4.3,-15.492 -11.17,-19.36 h 76.97 c -6.45,3.868 -11.18,9.879 -11.18,19.36 v 251.554 c 31.39,0 70.52,-3.007 70.52,-3.007" /><path
         id="path40"
         style="fill:#231f20;fill-opacity:1;fill-rule:evenodd;stroke:none"
         d="m 2798.42,701.129 c 0,0 -113.1,-264.039 -121.26,-280.367 -4.31,-8.172 -8.18,-12.91 -20.21,-21.082 h 59.34 c -11.61,5.16 -13.76,11.199 -9.89,21.511 0.86,4.727 11.18,30.098 24.08,59.329 h 105.36 c 12.03,-29.231 23.22,-55.461 24.5,-59.758 3.02,-9.043 0.87,-15.063 -10.32,-21.082 h 92.03 c -14.19,7.308 -17.2,12.039 -21.5,21.082 -7.74,16.328 -122.13,280.367 -122.13,280.367 z m -59.34,-198.238 c 13.76,32.254 43,105.351 43,105.351 0,0 23.65,-57.629 43.86,-105.351 h -86.86" /><path
         id="path42"
         style="fill:#231f20;fill-opacity:1;fill-rule:nonzero;stroke:none"
         d="m 3081.18,692.109 h -77.84 c 7.31,-3.437 12.04,-9.472 12.04,-19.355 V 419.039 c 0,-9.469 -4.73,-15.48 -12.04,-19.348 h 181.04 l 9.47,49.45 c -13.34,-24.942 -28.39,-25.371 -76.12,-27.09 -19.35,0 -39.13,1.719 -47.73,2.148 v 248.555 c 0,9.883 4.29,15.918 11.18,19.355" /><path
         id="path44"
         style="fill:#231f20;fill-opacity:1;fill-rule:evenodd;stroke:none"
         d="m 3369.39,701.129 c 0,0 -113.1,-264.039 -121.27,-280.367 -4.3,-8.172 -8.17,-12.91 -20.21,-21.082 h 59.35 c -11.62,5.16 -13.76,11.199 -9.9,21.511 0.87,4.727 11.18,30.098 24.09,59.329 h 105.35 c 12.04,-29.231 23.23,-55.461 24.51,-59.758 3.02,-9.043 0.86,-15.063 -10.32,-21.082 h 92.03 c -14.19,7.308 -17.2,12.039 -21.5,21.082 -7.74,16.328 -122.13,280.367 -122.13,280.367 z m -59.34,-198.238 c 13.76,32.254 43,105.351 43,105.351 0,0 23.65,-57.629 43.86,-105.351 h -86.86" /><path
         id="path46"
         style="fill:#231f20;fill-opacity:1;fill-rule:nonzero;stroke:none"
         d="m 3790.8,502.891 -158.67,189.218 h -73.97 c 9.03,-5.156 15.04,-11.191 19.34,-16.347 8.18,-9.883 7.75,-10.313 7.75,-27.09 V 419.039 c 0,-9.469 -4.72,-15.488 -11.19,-19.348 h 47.74 c -7.31,3.86 -12.04,9.879 -12.04,19.348 v 215.453 c 0,-3.469 206.41,-246.851 206.41,-246.851 v 285.113 c 0,9.883 4.73,15.918 11.17,19.355 h -47.71 c 6.87,-3.437 11.17,-9.472 11.17,-19.355 V 502.891" /><path
         id="path48"
         style="fill:#231f20;fill-opacity:1;fill-rule:evenodd;stroke:none"
         d="m 4051.68,692.109 h -114.37 c 6.44,-3.437 11.17,-9.472 11.17,-19.355 V 419.039 c 0,-9.469 -4.73,-15.48 -11.17,-19.348 h 110.5 c 116.12,0 173.73,75.68 173.73,150.504 0,41.719 -28.38,141.914 -169.86,141.914 z m -9.02,-21.504 c 89.02,0 119.12,-68.808 119.12,-120.41 0,-62.773 -27.09,-128.144 -124.28,-128.144 -8.16,0 -24.08,0 -34.4,0 v 247.695 c 6.45,0.859 29.24,0.859 39.56,0.859" /><path
         id="path50"
         style="fill:#231f20;fill-opacity:1;fill-rule:nonzero;stroke:none"
         d="m 4410.35,578.574 c -40.43,18.496 -58.93,28.379 -58.93,54.61 0,18.496 12.91,41.289 45.59,41.289 41.29,0 65.8,-34.407 71.82,-57.2 l -2.15,63.633 c -21.94,12.91 -50.32,15.918 -64.94,15.918 -39.13,0 -93.73,-23.211 -93.73,-81.695 0,-32.688 17.18,-55.902 56.75,-77.824 39.13,-21.075 76.55,-26.692 76.55,-67.957 0,-21.067 -12.91,-51.598 -55.47,-51.598 -44.73,0 -70.53,40.414 -78.69,70.961 l 2.15,-72.68 c 15.03,-7.32 43.41,-20.64 82.55,-20.64 52.89,0 100.2,36.543 100.2,90.312 0,59.766 -41.72,73.953 -81.7,92.871" /><path
         id="path52"
         style="fill:#231f20;fill-opacity:1;fill-rule:evenodd;stroke:none"
         d="m 4791.58,619.863 c 0,28.809 -20.21,72.246 -109.22,72.246 h -92.89 c 6.88,-3.437 11.19,-9.48 11.19,-19.355 V 419.039 c 0,-9.469 -4.31,-15.488 -11.19,-19.359 h 77.83 c -7.3,3.871 -12.03,9.89 -12.03,19.359 v 117.399 c 0,0 13.75,0.867 18.93,0.867 18.47,0 28.38,-18.496 39.55,-35.703 15.49,-24.082 34.41,-55.469 53.75,-82.563 7.75,-10.328 21.93,-20.219 38.28,-20.219 l 55.9,0.86 c 0,0 -19.36,6.879 -27.52,17.211 -15.06,17.191 -66.66,98.91 -66.66,98.91 -6.45,9.453 -19.34,29.238 -48.6,32.234 30.55,2.153 72.68,25.383 72.68,71.828 z m -111.37,51.602 c 42.58,0 54.61,-34.395 54.61,-54.192 0,-43.433 -30.95,-59.773 -60.19,-59.773 -7.33,0 -19.36,0.859 -19.36,0.859 v 112.239 c 0,0 12.03,0.867 24.94,0.867" /><path
         id="path54"
         style="fill:#231f20;fill-opacity:1;fill-rule:nonzero;stroke:none"
         d="m 5089.94,692.109 h -172.87 c 6.87,-3.437 12.91,-9.472 12.91,-19.355 V 419.039 c 0,-10.328 -5.59,-15.059 -12.91,-19.348 h 184.92 l 9.03,49.45 c -15.92,-27.09 -33.11,-26.231 -70.53,-27.09 -21.08,-0.86 -47.31,0.859 -55.9,2.148 v 126.438 h 64.94 c 6.02,0 13.32,-6.457 15.47,-12.473 v 45.566 c -2.15,-5.156 -9.45,-12.031 -15.47,-12.031 h -64.94 v 98.906 c 0,0 60.19,0 73.1,-0.859 16.33,-0.859 25.37,-4.297 33.54,-15.488 l -1.29,37.851" /><path
         id="path56"
         style="fill:#231f20;fill-opacity:1;fill-rule:nonzero;stroke:none"
         d="m 5335.82,696.836 c -110.1,0 -166.43,-76.531 -166.43,-151.797 0,-91.601 75.69,-149.648 161.25,-149.648 34.42,0 95.47,11.179 131.61,31.386 -2.15,1.289 -6.9,9.036 -6.9,17.649 v 63.621 c 0,9.902 4.75,15.93 11.19,19.797 h -76.97 c 6.88,-3.867 11.17,-9.895 11.17,-19.797 V 433.23 c -20.21,-13.32 -45.58,-14.179 -54.61,-14.179 -89.02,0 -118.26,72.668 -118.26,131.586 0,69.238 42.15,122.988 115.26,122.988 20.21,0 74.82,-9.035 96.75,-67.523 l -3,68.378 c -33.99,14.629 -65.81,22.356 -101.06,22.356" /><path
         id="path58"
         style="fill:#231f20;fill-opacity:1;fill-rule:nonzero;stroke:none"
         d="m 5563.79,692.109 c 6.88,-3.437 11.19,-9.472 11.19,-19.355 V 419.039 c 0,-9.469 -4.31,-15.48 -11.19,-19.348 h 77.83 c -7.3,3.868 -11.17,9.879 -11.17,19.348 v 253.715 c 0,9.883 3.87,15.918 11.17,19.355 h -77.83" /><path
         id="path60"
         style="fill:#231f20;fill-opacity:1;fill-rule:evenodd;stroke:none"
         d="m 6050.88,545.039 c 1.29,97.617 -82.13,150.938 -155.67,151.797 -103.2,1.301 -162.55,-73.965 -163.84,-148.359 -1.72,-88.145 70.53,-151.797 156.97,-153.086 77.83,-0.86 160.82,49.023 162.54,149.648 z m -159.53,129.434 c 57.19,0 99.76,-49.024 98.91,-132.012 0,-77.832 -41.72,-122.563 -98.05,-122.563 -49.45,0 -101.06,41.723 -101.06,133.305 0.86,76.113 43.42,121.27 100.2,121.27" /><path
         id="path62"
         style="fill:#231f20;fill-opacity:1;fill-rule:nonzero;stroke:none"
         d="m 6347.13,502.891 -158.69,189.218 h -73.97 c 9.05,-5.156 15.06,-11.191 19.36,-16.347 8.16,-9.883 7.73,-10.313 7.73,-27.09 V 419.039 c 0,-9.469 -4.72,-15.488 -11.17,-19.348 h 47.74 c -7.31,3.86 -12.05,9.879 -12.05,19.348 v 215.453 c 0,-3.469 206.42,-246.851 206.42,-246.851 v 285.113 c 0,9.883 4.73,15.918 11.17,19.355 h -47.73 c 6.87,-3.437 11.19,-9.472 11.19,-19.355 V 502.891" /><path
         id="path64"
         style="fill:#231f20;fill-opacity:1;fill-rule:nonzero;stroke:none"
         d="M 6656.17,692.109 H 6483.3 c 6.87,-3.437 12.89,-9.472 12.89,-19.355 V 419.039 c 0,-10.328 -5.59,-15.059 -12.89,-19.348 h 184.9 l 9.04,49.45 c -15.91,-27.09 -33.12,-26.231 -70.52,-27.09 -21.08,-0.86 -47.31,0.859 -55.9,2.148 v 126.438 h 64.92 c 6.04,0 13.34,-6.457 15.49,-12.473 v 45.566 c -2.15,-5.156 -9.45,-12.031 -15.49,-12.031 h -64.92 v 98.906 c 0,0 60.19,0 73.1,-0.859 16.33,-0.859 25.38,-4.297 33.54,-15.488 l -1.29,37.851" /><path
         id="path66"
         style="fill:#231f20;fill-opacity:1;fill-rule:nonzero;stroke:none"
         d="m 6977.79,502.891 -158.67,189.218 h -73.97 c 9.03,-5.156 15.06,-11.191 19.36,-16.347 8.16,-9.883 7.73,-10.313 7.73,-27.09 V 419.039 c 0,-9.469 -4.72,-15.488 -11.17,-19.348 h 47.74 c -7.33,3.86 -12.06,9.879 -12.06,19.348 v 215.453 c 0,-3.469 206.41,-246.851 206.41,-246.851 v 285.113 c 0,9.883 4.75,15.918 11.19,19.355 h -47.73 c 6.87,-3.437 11.17,-9.472 11.17,-19.355 V 502.891" /><path
         id="path68"
         style="fill:#231f20;fill-opacity:1;fill-rule:evenodd;stroke:none"
         d="m 2375.25,545.039 c 1.29,97.617 -82.13,150.938 -155.67,151.797 -103.21,1.301 -162.55,-73.965 -163.84,-148.359 -1.72,-88.145 70.53,-151.797 156.96,-153.086 77.83,-0.86 160.83,49.023 162.55,149.648 z m -159.54,129.434 c 57.2,0 99.76,-49.024 98.9,-132.012 0,-77.832 -41.7,-122.563 -98.04,-122.563 -49.46,0 -101.06,41.723 -101.06,133.305 0.86,76.113 43.44,121.27 100.2,121.27" /><path
         id="path70"
         style="fill:#231f20;fill-opacity:1;fill-rule:nonzero;stroke:none"
         d="m 2262.84,717.871 c 12.01,0 22.2,9.457 22.2,22.195 0,12.004 -10.19,21.473 -22.2,21.473 -12.01,0 -21.47,-9.469 -21.47,-21.473 0,-12.738 9.46,-22.195 21.47,-22.195" /><path
         id="path72"
         style="fill:#231f20;fill-opacity:1;fill-rule:nonzero;stroke:none"
         d="m 2167.32,717.871 c 12.01,0 22.2,9.457 22.2,22.195 0,12.004 -10.19,21.473 -22.2,21.473 -12.01,0 -21.47,-9.469 -21.47,-21.473 0,-12.738 9.46,-22.195 21.47,-22.195" /></g></g></svg>